<svg xmlns="http://www.w3.org/2000/svg" viewBox="0 0 24 24" width="24" height="24">
  <path fill="#ffd54f" d="M14 3c-3.866 0-7 2.91-7 6.5S8.134 16 12 16c.828 0 1.5.672 1.5 1.5S12.828 19 12 19c-1.657 0-3 1.12-3 2.5S10.343 24 12 24c3.866 0 7-2.91 7-6.5S17.866 3 14 3z"/>
  <circle cx="9.5" cy="9.5" r="1.2" fill="#ff7043"/>
  <circle cx="12.5" cy="8" r="1" fill="#29b6f6"/>
  <circle cx="11" cy="12" r="1.1" fill="#66bb6a"/>
  <path fill="#8d6e63" d="M19 2l3 3-7.5 7.5-3-3L19 2z"/>
</svg>







