<svg xmlns="http://www.w3.org/2000/svg" viewBox="0 0 24 24" width="24" height="24">
  <path fill="#b0bec5" d="M19.14,12.94a7.43,7.43,0,0,0,.05-.94,7.43,7.43,0,0,0-.05-.94l2.11-1.65a.48.48,0,0,0,.11-.61l-2-3.46a.5.5,0,0,0-.6-.22l-2.49,1a6.79,6.79,0,0,0-1.63-.94L14.5,2.5a.5.5,0,0,0-.5-.5H10a.5.5,0,0,0-.5.5L9,4.18a6.79,6.79,0,0,0-1.63.94l-2.49-1a.5.5,0,0,0-.6.22l-2,3.46a.48.48,0,0,0,.11.61L4.58,11.06a7.43,7.43,0,0,0-.05.94,7.43,7.43,0,0,0,.05.94L2.47,14.59a.48.48,0,0,0-.11.61l2,3.46a.5.5,0,0,0,.6.22l2.49-1a6.79,6.79,0,0,0,1.63.94L9.5,21.5a.5.5,0,0,0,.5.5h4a.5.5,0,0,0,.5-.5l.5-1.68a6.79,6.79,0,0,0,1.63-.94l2.49,1a.5.5,0,0,0,.6-.22l2-3.46a.48.48,0,0,0-.11-.61ZM12,15.5A3.5,3.5,0,1,1,15.5,12,3.5,3.5,0,0,1,12,15.5Z"/>
</svg>







